<?xml version="1.0" encoding="UTF-8"?>
<svg id="Layer_2" data-name="Layer 2" xmlns="http://www.w3.org/2000/svg" viewBox="0 0 798.41 260.75">
  <defs>
    <style>
      .cls-1 {
        fill: #e89b31;
      }
    </style>
  </defs>
  <circle class="cls-1" cx="599.25" cy="24.78" r="24.78"/>
  <path class="cls-1" d="M573.89,203.22c-20.53,22.4-57.77,21.26-80.99,2.65-18.2-14.58-26.97-35.99-27.61-59.33s7.43-46.27,25.57-61.74c23.43-19.98,60.43-22.09,83-.03l-.06-33.13c14.88,12.26,33.86,12.55,50.15.7l-.02,164.02-49.67.16-.37-13.3ZM520.97,162.38c7.16,12.3,21.15,16.56,33.95,12.38,11.7-3.82,19.21-15.02,19.88-28,.7-13.48-5.04-25.9-17.33-31.02s-26.43-2.62-34.49,8.1c-8.26,10.98-9.13,26.32-2.01,38.54Z"/>
  <polygon class="cls-1" points="798.41 72.77 721.57 260.67 667.69 260.75 689.43 210.02 664.94 149.93 633.2 72.71 687.95 72.62 716.08 156.04 730.14 116 744.99 72.78 798.41 72.77"/>
  <g>
    <path class="cls-1" d="M379.33,114.06c-11.24,1.11-19.59,10.27-19.64,22l-.32,80.42-51.25.11-.12-143.59,50.89-.43.22,15.77c10.42-13.83,25.03-19.67,41.87-19.2,32.83.93,50.18,20.92,52.57,53.22l.45,94.13-51.19.09-.4-82.53c-1.1-12.78-9.68-21.31-23.07-19.98Z"/>
    <path class="cls-1" d="M292.7,72.58v143.91s-50.44-.02-50.44-.02l-.27-15.17c-10.75,14.4-25.32,18.45-42.05,18.59-24.2.2-44.69-14.22-49.64-38.63-1.66-8.18-2.03-16.68-2.27-25.47l-.03-83.05,50.86-.13.16,82.81c1.01,12.79,9.88,21.06,22.39,20.06,11.72-.93,19.44-9.76,20.5-21.91l.06-80.84,50.71-.14Z"/>
    <path class="cls-1" d="M91.66,218.01c-30.62,4.37-64.97.17-91.66-15.44l11.73-39.61c17.41,10.44,35.66,15.33,55.22,17.24,9.14.64,19.17.37,19.58-5.94.12-1.83-2.21-5.1-4.41-5.59l-24.6-5.4c-10.88-2.39-21.56-5.21-30.88-10.89-12.68-7.72-19.25-20.01-19.44-34.54-.44-33.98,29.5-49.54,61.81-48.8,22.43-.38,44.79,3.45,64.74,14.28l-11.57,39.18c-16.59-8.95-33.85-13.87-52.18-14.54-7.68-.06-14.16,2.26-13.62,7.37.19,1.8,2.79,4.68,4.99,5.15l24.79,5.29c10.14,2.17,20.17,4.82,29.22,9.5,14.06,7.26,21.33,21,20.72,36.57-.43,10.98-2.97,21.45-10.67,29.55-8.81,9.26-20.45,14.7-33.79,16.6Z"/>
  </g>
</svg>